<?xml version="1.0" encoding="UTF-8" standalone="no"?>
<svg
   xmlns:dc="http://purl.org/dc/elements/1.1/"
   xmlns:cc="http://creativecommons.org/ns#"
   xmlns:rdf="http://www.w3.org/1999/02/22-rdf-syntax-ns#"
   xmlns:svg="http://www.w3.org/2000/svg"
   xmlns="http://www.w3.org/2000/svg"
   xmlns:sodipodi="http://sodipodi.sourceforge.net/DTD/sodipodi-0.dtd"
   xmlns:inkscape="http://www.inkscape.org/namespaces/inkscape"
   version="1.1"
   id="Layer_1"
   x="0px"
   y="0px"
   width="512px"
   height="512px"
   viewBox="0 0 512 512"
   style="enable-background:new 0 0 512 512;"
   xml:space="preserve"
   sodipodi:docname="textbooks.svg"
   inkscape:version="1.0 (4035a4fb49, 2020-05-01)"><metadata
   id="metadata35"><rdf:RDF><cc:Work
       rdf:about=""><dc:format>image/svg+xml</dc:format><dc:type
         rdf:resource="http://purl.org/dc/dcmitype/StillImage" /><dc:title></dc:title></cc:Work></rdf:RDF></metadata><defs
   id="defs33">
	
	
	
	
	
	
	
	
	
	
	
	
	
</defs><sodipodi:namedview
   inkscape:document-rotation="0"
   pagecolor="#ffffff"
   bordercolor="#666666"
   borderopacity="1"
   objecttolerance="10"
   gridtolerance="10"
   guidetolerance="10"
   inkscape:pageopacity="0"
   inkscape:pageshadow="2"
   inkscape:window-width="1920"
   inkscape:window-height="1017"
   id="namedview31"
   showgrid="false"
   inkscape:zoom="1.6601562"
   inkscape:cx="240.69211"
   inkscape:cy="250.82409"
   inkscape:window-x="-8"
   inkscape:window-y="-8"
   inkscape:window-maximized="1"
   inkscape:current-layer="Layer_1" />
<path
   id="path2"
   d="M 512,256.004 C 512,397.341 397.427,512 256.205,512 114.577,512 0,397.341 0,256.004 0,114.668 114.577,0 256.205,0 397.427,0 512,114.668 512,256.004 Z"
   style="clip-rule:evenodd;fill:#3a7ad1;fill-rule:evenodd;fill-opacity:1" /><path
   id="path4"
   d="M 403.002,199.864 C 389.08,177.969 389.08,150.493 402.608,128.597 H 147.989 c -19.485,0 -35.398,15.929 -35.398,35.434 0,19.513 16.308,35.434 35.398,35.833 z"
   style="clip-rule:evenodd;fill:#f1f3f7;fill-rule:evenodd" /><path
   id="path6"
   d="m 372.769,217.776 c -2.796,-0.793 -5.576,-1.193 -8.359,-1.193 -86.728,0 -168.272,0 -254.996,0 13.922,21.5 13.922,49.372 0.395,71.271 h 254.203 c 19.49,0 35.402,-15.924 35.402,-35.438 -10e-4,-16.719 -11.526,-30.652 -26.645,-34.64 z"
   style="clip-rule:evenodd;fill:#f1f3f7;fill-rule:evenodd" /><path
   id="path8"
   d="m 403.801,376.238 c -13.528,-21.5 -13.927,-49.37 -0.399,-71.27 H 147.989 c -19.485,0 -35.398,15.924 -35.398,35.438 0,19.509 16.308,35.832 35.398,35.832 z"
   style="clip-rule:evenodd;fill:#f1f3f7;fill-rule:evenodd" /><path
   id="path10"
   d="m 396.629,360.714 c 0,-0.799 -0.395,-1.193 -0.395,-1.996 h -278.08 c 0,0.396 0.398,0.803 0.398,1.197 0.396,0 0.794,0.399 1.205,0.799 z m -1.587,-6.374 c -0.399,-0.794 -0.399,-1.193 -0.399,-1.996 H 114.976 c 0,0.803 0.395,1.202 0.395,1.996 z m -1.192,-6.77 c 0,-0.395 0,-1.193 0,-1.588 H 112.986 c 0.398,0.395 0.398,1.193 0.398,1.588 z m -0.4,-6.37 c 0,-0.794 0,-1.193 0,-1.987 H 112.591 v 0.396 0 0 0 0 0 0 c 0,0.398 0,0.398 0,0.798 v 0 0 0 0 0 0 0 c 0,0.395 0,0.395 0,0.794 v 0 0 0 0 0 0 H 393.45 Z m 0.4,-6.37 c 0,-0.795 0,-1.192 0,-1.987 H 113.385 c 0,0.795 0,1.192 -0.398,1.987 z m 0.793,-6.769 c 0,-0.399 0.399,-1.192 0.399,-1.592 H 115.77 c -0.399,0.399 -0.794,1.192 -0.794,1.592 z m 1.591,-6.371 c 0,-0.798 0.395,-1.192 0.395,-1.99 H 119.347 c -0.398,0.798 -0.794,1.192 -1.192,1.99 z"
   style="clip-rule:evenodd;fill:#e6e9ee;fill-rule:evenodd" /><path
   id="path12"
   d="m 112.591,340.406 c 0,-19.514 15.913,-35.438 35.398,-35.438 H 407.772 V 296.61 H 147.989 c -24.255,0 -44.156,19.509 -44.156,43.796 0,24.682 19.901,44.189 44.156,44.189 h 259.783 v -8.357 H 147.989 c -19.091,0 -35.398,-16.323 -35.398,-35.832 z"
   style="clip-rule:evenodd;fill:#ff7058;fill-rule:evenodd" /><polygon
   id="polygon14"
   points="148.388,355.932 188.572,355.932 188.572,408.483 169.082,391.764 148.388,410.075 "
   style="clip-rule:evenodd;fill:#324a5e;fill-rule:evenodd" /><path
   id="path16"
   d="m 116.563,272.724 c 0.398,-0.794 0.398,-1.193 0.798,-1.988 H 395.44 c -0.398,0.396 -0.398,0.795 -0.798,0.795 0,0.399 -0.394,0.794 -0.793,1.193 z m 1.99,-6.769 c 0,-0.396 0,-1.194 0.396,-1.589 H 398.62 c -0.398,0.395 -0.398,1.193 -0.798,1.589 z m 0.794,-6.371 c 0.411,-0.398 0.411,-1.193 0.411,-1.987 h 280.448 c 0,0.794 0,1.589 -0.395,1.987 z m 0.411,-6.37 c 0,-0.798 0,-1.193 0,-1.992 h 280.848 v 0.399 0 0 0 0 0 0 c 0,0 0,0.399 0,0.794 v 0 0 0 0 0 0 0 c 0,0 0,0.399 0,0.798 v 0 0 0 0 0 0 H 119.758 Z m 0,-6.769 c 0,-0.399 -0.411,-1.194 -0.411,-1.593 h 280.465 c 0.395,0.399 0.395,1.193 0.395,1.593 z m -0.81,-6.374 c -0.396,-0.794 -0.396,-1.194 -0.396,-1.988 h 279.269 c 0,0.794 0.399,1.193 0.798,1.988 z m -1.587,-6.362 c -0.399,-0.803 -0.399,-1.202 -0.798,-1.996 H 393.85 c 0.399,0.794 0.793,1.193 1.192,1.996 z"
   style="clip-rule:evenodd;fill:#e6e9ee;fill-rule:evenodd" /><polygon
   id="polygon18"
   points="324.226,228.928 364.409,228.928 364.409,281.479 344.921,265.16 324.226,283.472 "
   style="clip-rule:evenodd;fill:#4cdbc4;fill-rule:evenodd" /><path
   id="path20"
   d="m 395.836,184.737 c -0.396,-0.798 -0.396,-1.193 -0.794,-1.991 h -278.08 c 0.399,0.399 0.399,0.798 0.794,0.798 0,0.396 0.398,0.794 0.797,1.193 z m -1.986,-6.768 c 0,-0.399 0,-1.194 -0.399,-1.592 H 113.783 c 0.396,0.398 0.396,1.193 0.794,1.592 z m -0.793,-6.374 c 0,-0.396 -0.399,-1.194 -0.399,-1.988 H 112.192 c 0,0.794 0,1.592 0.398,1.988 z m -0.4,-6.37 c 0,-0.794 0,-1.193 0,-1.988 H 111.798 v 0.395 0 0 0 0 0 0 c 0,0 0,0.399 0,0.798 v 0 0 0 0 0 0 0 c 0,0 0,0.395 0,0.794 v 0 0 0 0 0 0 h 280.859 z m 0,-6.769 c 0,-0.395 0.399,-1.194 0.399,-1.589 H 112.591 c 0,0.395 -0.398,1.194 -0.398,1.589 z m 0.793,-6.362 c 0.399,-0.399 0.399,-1.202 0.399,-1.996 H 114.577 c 0,0.794 -0.398,1.597 -0.794,1.996 z m 1.592,-6.375 c 0.398,-0.794 0.398,-1.193 0.794,-1.996 H 118.553 c -0.398,0.803 -0.797,1.202 -1.191,1.996 z"
   style="clip-rule:evenodd;fill:#e6e9ee;fill-rule:evenodd" /><path
   id="path22"
   d="m 399.413,252.416 c 0,19.514 -15.912,35.438 -35.402,35.438 H 104.232 v 8.357 H 364.01 c 24.275,0 44.16,-19.908 44.16,-44.19 0,-24.287 -19.885,-44.195 -44.16,-44.195 H 104.232 v 8.362 H 364.01 c 19.491,0.395 35.403,16.32 35.403,36.228 z"
   style="clip-rule:evenodd;fill:#324a5e;fill-rule:evenodd" /><path
   id="path24"
   d="m 112.591,164.031 c 0,-19.505 15.913,-35.434 35.398,-35.434 h 259.783 v -8.361 H 147.989 c -24.255,-0.396 -43.757,19.513 -43.757,43.795 0,24.286 19.896,44.194 44.155,44.194 H 408.17 v -8.361 H 147.989 c -19.091,-0.399 -35.398,-16.32 -35.398,-35.833 z"
   style="clip-rule:evenodd;fill:#ffd05b;fill-rule:evenodd" /><polygon
   id="polygon26"
   points="148.388,143.329 188.572,143.329 188.572,195.885 169.082,179.557 148.388,197.876 "
   style="clip-rule:evenodd;fill:#ff7058;fill-rule:evenodd" />
</svg>
