<?xml version="1.0" encoding="UTF-8" standalone="no"?>
<svg
   xmlns:dc="http://purl.org/dc/elements/1.1/"
   xmlns:cc="http://creativecommons.org/ns#"
   xmlns:rdf="http://www.w3.org/1999/02/22-rdf-syntax-ns#"
   xmlns:svg="http://www.w3.org/2000/svg"
   xmlns="http://www.w3.org/2000/svg"
   xmlns:sodipodi="http://sodipodi.sourceforge.net/DTD/sodipodi-0.dtd"
   xmlns:inkscape="http://www.inkscape.org/namespaces/inkscape"
   inkscape:version="1.0 (4035a4fb49, 2020-05-01)"
   sodipodi:docname="white-board-pythagorean.svg"
   xml:space="preserve"
   style="enable-background:new 0 0 512 512;"
   viewBox="0 0 512 512"
   height="512px"
   width="512px"
   y="0px"
   x="0px"
   id="Layer_1"
   version="1.1"><metadata
   id="metadata25"><rdf:RDF><cc:Work
       rdf:about=""><dc:format>image/svg+xml</dc:format><dc:type
         rdf:resource="http://purl.org/dc/dcmitype/StillImage" /><dc:title></dc:title></cc:Work></rdf:RDF></metadata><defs
   id="defs23">
	
	
	
	
	
	
	
	
</defs><sodipodi:namedview
   inkscape:current-layer="Layer_1"
   inkscape:window-maximized="1"
   inkscape:window-y="-8"
   inkscape:window-x="-8"
   inkscape:cy="256"
   inkscape:cx="256"
   inkscape:zoom="1.6601562"
   showgrid="false"
   id="namedview21"
   inkscape:window-height="1017"
   inkscape:window-width="1920"
   inkscape:pageshadow="2"
   inkscape:pageopacity="0"
   guidetolerance="10"
   gridtolerance="10"
   objecttolerance="10"
   borderopacity="1"
   bordercolor="#666666"
   pagecolor="#ffffff" />
<path
   style="clip-rule:evenodd;fill:#3a7ad1;fill-rule:evenodd;fill-opacity:1"
   d="M 512,256.204 C 512,114.571 397.421,0 256.196,0 114.569,0 0,114.571 0,256.204 0,397.429 114.569,512 256.196,512 397.421,512 512,397.429 512,256.204 Z"
   id="path2" /><path
   style="clip-rule:evenodd;fill:#324a5e;fill-rule:evenodd"
   d="m 230.737,374.352 -14.72,43.76 H 197.72 l 47.339,-139.629 h 21.484 l 47.737,139.629 h -19.49 l -14.72,-43.76 z m 45.747,-14.316 -13.527,-39.785 c -3.178,-9.152 -5.166,-17.508 -7.16,-25.461 h -0.794 c -1.987,7.953 -3.974,17.105 -6.764,25.461 l -13.527,40.181 h 41.772 z"
   id="path4" /><path
   style="clip-rule:evenodd;fill:#324a5e;fill-rule:evenodd"
   d="m 295.186,113.775 h 19.49 L 266.938,253.414 H 245.459 L 197.72,113.775 h 18.298 l 14.72,43.762 h 49.333 l 15.115,-43.762 m -60.474,58.084 13.527,40.184 c 2.79,8.355 4.776,17.502 6.764,25.458 h 0.794 c 1.994,-7.956 3.982,-16.706 7.16,-25.458 l 13.527,-39.786 h -41.772 z"
   id="path6" /><rect
   x="83.938004"
   y="137.651"
   style="clip-rule:evenodd;fill:#fefefe;fill-rule:evenodd"
   width="344.11499"
   height="229.14101"
   id="rect8" /><path
   style="fill:#929497"
   d="m 166.287,278.076 h -10.738 v -5.168 0 c -2.385,3.976 -5.968,5.97 -10.744,5.97 -3.18,0 -5.962,-0.802 -7.956,-2.787 -1.988,-1.99 -3.181,-4.771 -3.181,-7.961 0,-6.761 4.373,-10.734 12.33,-11.926 l 9.947,-1.201 c 0,-3.974 -2.384,-5.962 -6.364,-5.962 -4.38,0 -8.354,1.192 -12.336,3.977 v -8.355 c 1.598,-0.794 3.584,-1.59 6.367,-1.986 2.788,-0.796 5.173,-1.192 7.161,-1.192 10.348,0 15.514,5.166 15.514,15.514 z m -10.342,-14.313 v -2.394 l -6.763,0.795 c -3.584,0.398 -5.173,1.994 -5.173,4.773 0,1.192 0.396,2.385 1.191,3.182 0.797,0.803 1.995,1.201 3.584,1.201 1.988,0 3.577,-0.798 5.173,-2.394 1.193,-1.192 1.988,-3.177 1.988,-5.163 z m 63.252,-2.394 h -13.123 v 13.13 h -7.162 v -13.13 h -13.525 v -7.16 h 13.525 v -13.521 h 7.162 v 13.521 h 13.123 z m 24.273,12.732 h -0.396 v 3.976 h -10.747 v -52.908 h 10.747 v 22.674 h 0.396 c 2.385,-3.974 6.358,-6.358 11.533,-6.358 4.377,0 7.954,1.589 10.348,4.77 2.779,3.187 3.972,7.558 3.972,13.129 0,5.969 -1.588,10.737 -4.375,14.323 -2.783,3.578 -6.76,5.173 -11.535,5.173 -4.378,-0.002 -7.955,-1.597 -9.943,-4.779 z m -0.397,-15.116 v 3.577 c 0,2.393 0.396,4.375 1.985,5.971 1.192,1.192 2.784,1.989 5.175,1.989 2.385,0 4.371,-0.797 5.563,-2.788 1.597,-1.985 1.994,-4.777 1.994,-8.353 0,-2.781 -0.397,-5.173 -1.595,-6.764 -1.592,-1.589 -3.181,-2.385 -5.566,-2.385 -1.993,0 -3.98,0.796 -5.571,2.385 -1.192,1.592 -1.985,3.587 -1.985,6.368 z m 80.751,-5.174 h -33.811 v -7.161 h 33.811 z m 0,15.116 h -33.811 v -7.162 h 33.811 z m 39.79,7.957 c -2.386,1.599 -5.971,1.994 -10.748,1.994 -5.563,0 -9.943,-1.595 -13.126,-4.777 -3.581,-3.179 -5.172,-7.558 -5.172,-12.731 0,-6.366 1.99,-11.136 5.571,-14.322 3.577,-3.577 8.355,-5.563 14.321,-5.563 4.375,0 7.558,0.794 9.153,1.986 v 9.148 c -1.99,-1.589 -4.778,-2.385 -7.562,-2.385 -3.187,0 -5.572,0.796 -7.558,2.784 -1.986,1.589 -2.793,4.378 -2.793,7.555 0,3.19 0.807,5.576 2.793,7.162 1.591,1.991 3.976,2.788 7.158,2.788 2.784,0 5.575,-0.797 7.961,-2.393 v 8.754 z"
   id="path10" /><path
   style="fill:#929497"
   d="m 171.063,241.88 v 0 h 6.765 v 3.181 h -11.144 v -2.783 l 4.778,-4.776 c 1.192,-1.192 1.589,-1.988 2.385,-2.385 0.396,-0.795 0.396,-1.598 0.396,-2.391 0,-1.591 -0.795,-2.385 -2.384,-2.385 -1.59,0 -3.181,0.794 -4.38,1.985 v -3.178 c 1.598,-1.193 3.187,-1.59 5.175,-1.59 1.589,0 3.179,0.396 3.98,1.192 1.192,0.794 1.591,1.986 1.591,3.575 0,1.995 -1.192,4.38 -3.585,6.367 z"
   id="path12" /><path
   style="fill:#929497"
   d="m 275.691,241.88 v 0 h 6.764 v 3.181 h -11.143 v -2.783 l 4.778,-4.776 c 1.192,-1.192 1.587,-1.988 1.985,-2.385 0.398,-0.795 0.794,-1.598 0.794,-2.391 0,-1.591 -0.794,-2.385 -2.779,-2.385 -1.192,0 -2.784,0.794 -3.977,1.985 v -3.178 c 1.591,-1.193 3.178,-1.59 5.169,-1.59 1.587,0 2.787,0.396 3.979,1.192 0.794,0.794 1.587,1.986 1.587,3.575 0,1.995 -1.192,4.38 -3.581,6.367 z"
   id="path14" /><path
   style="fill:#929497"
   d="m 372.363,241.88 v 0 h 6.76 v 3.181 h -11.142 v -2.783 l 4.776,-4.776 c 1.193,-1.192 1.593,-1.988 1.99,-2.385 0.396,-0.795 0.795,-1.598 0.795,-2.391 0,-1.591 -0.795,-2.385 -2.785,-2.385 -1.192,0 -2.778,0.794 -3.979,1.985 v -3.178 c 1.201,-1.193 3.187,-1.59 4.777,-1.59 1.987,0 3.183,0.396 4.375,1.192 0.798,0.794 1.592,1.986 1.592,3.575 0,1.995 -1.192,4.38 -3.979,6.367 z"
   id="path16" />
</svg>
